<?xml version="1.0" encoding="utf-8"?>
<!-- Generator: Adobe Illustrator 19.2.0, SVG Export Plug-In . SVG Version: 6.00 Build 0)  -->
<svg version="1.1" id="Layer_1" xmlns="http://www.w3.org/2000/svg" xmlns:xlink="http://www.w3.org/1999/xlink" x="0px" y="0px"
	 width="125px" height="46.4px" viewBox="0 0 125 46.4" style="enable-background:new 0 0 125 46.4;" xml:space="preserve">
<style type="text/css">
	.st0{fill:#0065B0;}
	.st1{fill:#45AC34;}
</style>
<g>
	<path class="st0" d="M41.3,31.2v-2.8h-0.1c-1,2-2.9,3.1-5.9,3.1c0,0,0,0-0.1,0c-2.4,0-4-0.6-5-1.8c-0.5-0.6-0.7-1.2-0.9-1.9
		c-0.1-0.6-0.2-1.4-0.2-2.3c0-0.1,0-0.1,0-0.2v-4c0-0.1,0-0.1,0-0.2v-6h0c2.4,0,4,0.6,5,1.8c0.5,0.6,0.7,1.2,0.9,1.9
		c0.1,0.6,0.2,1.4,0.2,2.3c0,0.1,0,0.1,0,0.2v4c0,0.8,0.1,1.4,0.4,1.8c0.3,0.4,0.9,0.7,1.9,0.7c1.4,0,2.4-0.5,3-1.6
		c0.2-0.5,0.3-1.3,0.3-2.5v-8.7h5.8V6.3c0-3.3-2.7-6.1-6.1-6.1H6.8C3.5,0.3,0.8,3,0.8,6.3v9.1l0,0v24.6c0,3.3,2.7,6.1,6.1,6.1h33.8
		c3.3,0,6.1-2.7,6.1-6.1v-8.9H41.3z M16.5,31.5L16,31.6c-1.9,0.2-3,0.3-3.3,0.3c-2.5,0-4.3-0.3-5.4-1C6.6,30.4,6.2,29.8,6,29
		c-0.2-0.7-0.3-1.7-0.3-2.8v-7.1H2.3v-3.7h3.6l0.5-4.7l5.2-0.3v5h4.5v3.7h-4.5v6.4c0,0.7,0,1.3,0.1,1.6c0.1,0.3,0.3,0.6,0.7,0.7
		c0.4,0.2,1.1,0.2,2,0.2l1.9-0.1V31.5z M28.1,19.2c-0.3-0.2-0.8-0.3-1.5-0.3c-1.4,0-2.4,0.5-3,1.6c-0.2,0.5-0.3,1.3-0.3,2.5v8.7
		h-5.9V15.4h5.6v2.8h0.1c0.9-1.9,2.6-2.9,5.2-3V19.2z"/>
	<path class="st1" d="M86.7,23.3c0,2.3-0.9,4.3-2.8,5.8c-1.8,1.6-4.2,2.3-7.2,2.3c-2,0-3.8-0.4-5.3-1.1c-1.5-0.7-2.6-1.7-3.4-3
		c-0.8-1.3-1.2-2.7-1.2-4.3c0-1.6,0.4-3,1.2-4.3c0.8-1.3,1.9-2.2,3.4-3c1.5-0.7,3.2-1.1,5.3-1.1c2.1,0,3.9,0.4,5.4,1.1
		c1.5,0.7,2.6,1.7,3.4,3C86.3,20.3,86.7,21.7,86.7,23.3 M73.4,22.7c0,1.6,0.2,2.9,0.6,4.1c0.4,1.1,1.3,1.7,2.8,1.7
		c2.4,0,3.6-1.7,3.6-5.1c0-1.6-0.2-2.9-0.6-4c-0.5-1-1.4-1.4-2.9-1.4C74.5,17.9,73.4,19.5,73.4,22.7"/>
	<path class="st1" d="M124.2,13.7h-5.9V9.2h5.9V13.7z M124.2,31.2h-5.9V15.1h5.9V31.2z"/>
	<path class="st1" d="M53.8,31.2v-8.7c0-1.2,0.1-2,0.3-2.5c0.6-1,1.6-1.6,3-1.6c1,0,1.6,0.2,1.9,0.7c0.3,0.4,0.4,1,0.4,1.8v4
		c0,0.1,0,0.1,0,0.2c0,0.9,0.1,1.7,0.2,2.3c0.1,0.7,0.4,1.3,0.9,1.9c1,1.2,2.6,1.8,5,1.8h0v-6c0-0.1,0-0.1,0-0.2v-4
		c0-0.1,0-0.1,0-0.2c0-0.9-0.1-1.7-0.2-2.3c-0.1-0.7-0.4-1.3-0.9-1.9c-1-1.2-2.6-1.8-5-1.8c0,0,0,0-0.1,0c-3,0-4.9,1-5.9,3.1h-0.1
		v-2.8h-5.6v16.1H53.8z"/>
	<path class="st1" d="M116.9,25.1v-4c0-0.1,0-0.1,0-0.2c0-0.9-0.1-1.7-0.2-2.3c-0.1-0.7-0.4-1.3-0.9-1.9c-1-1.2-2.6-1.8-5-1.8
		c0,0,0,0-0.1,0c-2.9,0-4.9,1-5.9,3c0-0.1-0.1-0.2-0.1-0.2c-0.1-0.3-0.3-0.6-0.6-0.9c-0.6-0.7-1.4-1.2-2.5-1.5
		c-0.7-0.2-1.5-0.3-2.5-0.3c0,0,0,0-0.1,0c-3,0-4.9,1-5.9,3.1h-0.1v-2.8h-5.6v16.1h5.9v-8.7c0-1.2,0.1-2,0.3-2.5
		c0.6-1,1.6-1.6,3-1.6c1,0,1.6,0.2,1.9,0.7c0.2,0.4,0.4,0.9,0.4,1.6c0,0.1,0,0.1,0,0.2v4c0,0.1,0,0.1,0,0.2c0,0.9,0.1,1.7,0.2,2.3
		c0.1,0.7,0.4,1.3,0.9,1.9c0.9,1.2,2.6,1.8,4.9,1.8c0,0,0.1,0,0.1,0h0v-6c0-0.1,0-0.1,0-0.2v-4v0c0.1-0.4,0.1-0.7,0.2-0.9
		c0.6-1,1.6-1.6,3-1.6c1,0,1.6,0.2,1.9,0.7c0.3,0.4,0.4,1,0.4,1.8v4c0,0.1,0,0.1,0,0.2c0,0.9,0.1,1.7,0.2,2.3
		c0.1,0.7,0.4,1.3,0.9,1.9c1,1.2,2.6,1.8,5,1.8h0v-6C117,25.2,116.9,25.1,116.9,25.1"/>
</g>
<g>
</g>
<g>
</g>
<g>
</g>
<g>
</g>
<g>
</g>
<g>
</g>
<g>
</g>
<g>
</g>
<g>
</g>
<g>
</g>
<g>
</g>
<g>
</g>
<g>
</g>
<g>
</g>
<g>
</g>
</svg>
